HIERARCHY
ROOT Hips
{
  OFFSET -102.467 93.6631 130.069
  CHANNELS 6 Xposition Yposition Zposition Zrotation Xrotation Yrotation
  JOINT LeftUpLeg
  {
    OFFSET 8.64259 1.95398 -2.38835
    CHANNELS 3 Zrotation Xrotation Yrotation
    JOINT LeftLeg
    {
      OFFSET 43.7702 0 0
      CHANNELS 3 Zrotation Xrotation Yrotation
      JOINT LeftFoot
      {
        OFFSET 40.6238 0 0
        CHANNELS 3 Zrotation Xrotation Yrotation
        JOINT LeftToeBase
        {
          OFFSET 12.7242 0 0
          CHANNELS 3 Zrotation Xrotation Yrotation
          End Site
          {
            OFFSET 0 0 0
          }
        }
      }
    }
  }
  JOINT RightUpLeg
  {
    OFFSET -8.2249 1.95398 -2.59336
    CHANNELS 3 Zrotation Xrotation Yrotation
    JOINT RightLeg
    {
      OFFSET 43.5653 0 0
      CHANNELS 3 Zrotation Xrotation Yrotation
      JOINT RightFoot
      {
        OFFSET 40.6238 0 0
        CHANNELS 3 Zrotation Xrotation Yrotation
        JOINT RightToeBase
        {
          OFFSET 12.7242 0 0
          CHANNELS 3 Zrotation Xrotation Yrotation
          End Site
          {
            OFFSET 0 0 0
          }
        }
      }
    }
  }
  JOINT Spine
  {
    OFFSET 0.165834 0.87714 6.61349
    CHANNELS 3 Zrotation Xrotation Yrotation
    JOINT Spine1
    {
      OFFSET 7.38963 1.71661e-005 0
      CHANNELS 3 Zrotation Xrotation Yrotation
      JOINT Spine2
      {
        OFFSET 11.9445 1.14441e-005 0
        CHANNELS 3 Zrotation Xrotation Yrotation
        JOINT Spine3
        {
          OFFSET 14.7254 4.19617e-005 0
          CHANNELS 3 Zrotation Xrotation Yrotation
          JOINT Spine4
          {
            OFFSET 10.9679 0 0
            CHANNELS 3 Zrotation Xrotation Yrotation
            JOINT RightShoulder
            {
              OFFSET 2.46616 -1.6653 3.69651
              CHANNELS 3 Zrotation Xrotation Yrotation
              JOINT RightArm
              {
                OFFSET 13.0012 0 0
                CHANNELS 3 Zrotation Xrotation Yrotation
                JOINT RightForeArm
                {
                  OFFSET 28.7848 1.52588e-005 0
                  CHANNELS 3 Zrotation Xrotation Yrotation
                  JOINT RightHand
                  {
                    OFFSET 26.5688 1.52588e-005 0
                    CHANNELS 3 Zrotation Xrotation Yrotation
                    End Site
                    {
                      OFFSET 0 0 0
                    }
                  }
                }
              }
            }
            JOINT LeftShoulder
            {
              OFFSET 2.38034 -1.29275 -3.7523
              CHANNELS 3 Zrotation Xrotation Yrotation
              JOINT LeftArm
              {
                OFFSET 16.3182 6.10351e-005 0
                CHANNELS 3 Zrotation Xrotation Yrotation
                JOINT LeftForeArm
                {
                  OFFSET 27.0901 0 0
                  CHANNELS 3 Zrotation Xrotation Yrotation
                  JOINT LeftHand
                  {
                    OFFSET 24.5451 1.52588e-005 0
                    CHANNELS 3 Zrotation Xrotation Yrotation
                    End Site
                    {
                      OFFSET 0 0 0
                    }
                  }
                }
              }
            }
            JOINT Neck
            {
              OFFSET 5.0226 -0.0266342 0
              CHANNELS 3 Zrotation Xrotation Yrotation
              JOINT Head
              {
                OFFSET 6.69363 2.86102e-005 0
                CHANNELS 3 Zrotation Xrotation Yrotation
                End Site
                {
                  OFFSET 0 0 0
                }
              }
            }
          }
        }
      }
    }
  }
}
MOTION
Frames:	17
Frame Time:	0.0416667
215.262 97.1698 -224.236 -98.4953 -55.3766 -94.3688 -174.26 -11.2346 94.0508 -32.8025 31.2938 7.74666 57.9519 1.52179 7.872 62.5079 -2.77261 3.49469 176.29 18.9619 87.8368 -10.3666 -1.95584 1.22289 47.5074 11.278 17.378 19.3368 1.72297 -6.42994 -0.569082 7.66248 -90.4761 11.5439 -1.35489 -0.809455 -0.126543 -1.38917 -0.749044 -22.6634 -1.04897 -1.17923 -2.65077 -1.04897 -1.17923 102.211 -52.4871 -82.0995 37.0016 -6.68029 9.43664 -3.94908 -19.6961 -11.0816 -4.43694 -0.282233 2.54154 -82.7275 -56.1814 89.962 -12.2671 17.824 -38.175 12.0884 26.66 -31.6294 2.42552 -0.147418 -5.72789 9.19856 0.770613 -3.19026 -22.4372 0.452103 6.2207 
207.153 96.5704 -217.138 -98.2414 -53.6696 -91.4391 -176.786 -8.35823 96.4967 -41.6221 18.3705 7.49625 46.6717 -6.05272 -2.2968 59.1722 -6.3311 -7.48752 175.54 23.4142 91.8383 -31.191 -6.99883 2.48797 55.3805 8.49142 11.6403 25.0554 1.24555 3.10705 -0.582441 7.69875 -90.9551 11.4593 -1.60486 -1.73898 -0.211702 -1.67984 -1.66668 -22.7411 -1.00818 -2.14078 -2.72845 -1.00817 -2.14077 101.796 -50.8517 -82.7389 36.7794 -6.22343 6.35218 -3.00003 -18.6192 -8.67426 -3.8718 -0.220215 1.67301 -83.3939 -57.2278 89.1108 -16.5035 15.6771 -32.6891 8.22147 32.2031 -22.07 4.09816 -0.224784 -6.05489 9.58747 2.09592 -1.322 -22.8462 1.27898 6.49905 
199.53 97.0984 -210.538 -98.8727 -55.0488 -91.9747 179.81 2.63955 95.1338 -59.4717 12.8102 6.24863 46.4351 -3.74384 5.73816 53.9108 -3.66685 -2.294 174.6 18.6753 92.7904 -36.3274 -5.87358 3.51959 63.6335 5.03845 9.46455 28.3186 0.865279 4.78428 -0.487618 7.75747 -91.0142 11.3421 -1.44294 -1.87529 -0.329244 -1.52405 -1.80998 -22.8561 -0.812796 -2.2221 -2.84345 -0.812795 -2.2221 101.966 -51.3277 -82.4726 34.9095 -7.46839 3.82821 -2.99996 -14.4987 -11.5184 -6.29769 -0.367407 1.80103 -83.9201 -57.0188 88.3562 -20.2849 13.9607 -31.2648 -1.85107 39.9274 -5.32885 -1.93377 0.0255408 -2.53008 8.26073 0.994802 -2.06044 -22.3032 0.538325 5.47018 
192.122 98.5109 -203.801 -98.4432 -53.1283 -93.5966 -178.226 14.4022 89.8449 -59.8263 10.07 3.3872 52.56 1.2739 9.10482 56.0592 -2.96883 0.966123 174.821 11.2302 91.5486 -34.4743 -5.07055 2.33446 67.7426 5.55485 12.337 26.5559 1.52286 7.20288 0.000907388 7.81804 -90.7726 11.2356 -0.357709 -1.50387 -0.436152 -0.423547 -1.48668 -22.9642 0.110744 -1.54184 -2.95157 0.110731 -1.54185 102.377 -51.8378 -81.8455 31.9386 -9.98504 0.832983 -4.70103 -12.428 -18.8291 -9.41564 -0.56765 1.8972 -83.9397 -57.4505 88.3699 -22.4925 11.6526 -25.0793 -4.44887 45.6742 -0.958171 -6.37762 -0.116383 -3.8845 7.10371 0.0739486 -3.09297 -21.2576 -0.0634998 5.01241 
185.402 99.1275 -197.302 -97.5549 -50.6223 -94.0245 -176.998 18.9444 87.4174 -40.4324 8.34108 1.03137 56.8528 3.04563 5.63826 58.2748 0.389572 11.7487 174.358 3.42378 90.4951 -30.3418 -4.28681 1.45041 69.5628 7.1724 16.2189 25.713 1.72345 7.57194 0.317108 7.91397 -90.5925 11.0464 0.356584 -1.21329 -0.62512 0.302838 -1.22782 -23.1571 0.704709 -1.05007 -3.14442 0.704727 -1.05006 102.17 -51.0249 -82.1605 29.6003 -11.425 -3.34534 -5.47889 -8.33952 -25.9162 -10.5524 -0.476885 0.0778345 -83.6658 -58.1246 88.8128 -21.7642 11.2016 -16.0007 -4.44571 39.1509 -1.79219 -3.43479 -0.079913 -5.51577 8.46542 -0.104002 -2.71683 -21.8738 -0.206675 4.36223 
179.145 98.85 -191.004 -93.6472 -48.0502 -90.1962 -178.278 20.0989 88.1419 -10.8544 9.85777 0.436374 52.445 -0.0477954 6.79713 46.6544 -0.240618 8.34923 174.685 -0.795214 91.9446 -27.2083 -3.78727 0.96939 69.7143 6.91555 17.8944 28.6315 1.34835 8.34618 0.590416 7.80487 -90.6195 11.2677 0.886682 -1.3212 -0.403697 0.82769 -1.35895 -22.9378 1.24274 -0.993675 -2.92516 1.24275 -0.993675 101.664 -50.6121 -82.9451 26.1534 -12.62 -9.32196 -6.88088 -7.76396 -30.7945 -11.5828 -0.545761 0.2966 -83.5879 -57.8955 88.8999 -23.2302 9.24465 -9.89787 -4.41078 37.7987 -0.658774 -3.41737 -0.0989047 -3.06591 9.16465 -0.137192 -3.13385 -20.6514 -0.286223 5.72741 
172.566 97.5116 -184.089 -93.4531 -44.3587 -89.2191 -178.811 22.9928 89.7635 -6.25422 12.4791 1.46101 54.2414 -1.75583 5.22105 43.2921 -0.410449 6.63728 174.384 -6.19454 90.1661 -27.5197 -10.2731 0.315748 66.8288 6.05421 17.297 38.2843 0.392588 10.5185 0.836036 7.96385 -90.5529 10.9517 1.40855 -1.23361 -0.719103 1.3529 -1.29441 -23.2582 1.71415 -0.753215 -3.24556 1.71417 -0.753209 100.508 -50.3862 -84.7419 24.4146 -13.4544 -14.4225 -8.11286 -8.14057 -33.7163 -13.3707 -0.648039 0.475816 -83.0973 -58.1843 89.6049 -23.5283 4.94437 -9.45016 -3.35883 42.8217 0.0532361 -6.80844 -0.0956716 -4.36685 11.7076 0.344885 -3.07585 -22.1047 0.260577 5.16192 
164.764 96.5326 -176.016 -92.3532 -44.9729 -90.6111 -179.593 25.503 87.4842 -18.0881 14.3024 1.21217 51.4268 -2.82337 6.59524 44.3284 0.0395697 9.07858 173.796 -10.8593 87.8621 -26.7716 -13.7772 -1.02806 56.3977 9.15869 18.2482 44.5308 1.32177 16.363 0.828856 8.04762 -90.0621 10.7824 1.6218 -0.273282 -0.887545 1.60823 -0.344416 -23.4309 1.62895 0.226912 -3.41822 1.62895 0.226909 101.07 -51.1648 -83.8541 24.2705 -16.262 -13.2859 -10.072 -8.62544 -37.632 -14.0612 -0.808238 1.52312 -84.1405 -57.5491 88.101 -22.4052 4.44909 -11.5949 -3.40463 48.8601 -0.00774652 -6.48174 -0.148943 -2.51772 15.5304 -0.435448 -4.9282 -23.578 0.0120038 5.35806 
156.431 96.0584 -167.836 -89.0323 -45.3453 -90.51 -179.164 27.1577 84.451 -31.2307 14.0907 1.32224 57.5786 0.648446 13.1922 45.3549 -1.41278 2.49571 173.241 -6.66932 85.4279 -35.4232 -12.6731 -1.33245 39.7573 13.4064 18.6269 6.56371 4.24416 22.0328 0.799578 8.03393 -89.428 10.798 1.85614 0.965098 -0.871932 1.89682 0.882437 -23.4116 1.48028 1.47835 -3.39892 1.48029 1.47835 101.12 -51.6629 -83.7672 26.7608 -23.4744 -7.79125 -9.0206 -6.44843 -39.4154 -14.8341 -0.758801 0.770099 -85.7788 -54.7401 85.4669 -21.6394 5.62973 -12.9195 -3.21451 37.4276 -0.00607184 -4.71148 -0.0858809 -4.59703 20.1153 -1.63081 -7.25679 -25.8509 -0.233395 4.93863 
148.597 95.9949 -159.954 -88.3625 -47.4433 -92.7089 -178.832 21.4695 81.7228 -33.9365 16.162 0.885342 63.6807 3.90975 11.8635 50.7964 -0.214794 9.15562 173.959 8.74461 81.9288 -59.7242 -19.0985 -1.72814 38.0122 13.9641 13.6263 16.6001 3.0393 0.589149 0.162632 8.50932 -88.9333 9.84224 0.807783 2.04688 -1.83002 0.897062 2.00936 -24.3524 0.155461 2.19496 -4.33971 0.155424 2.19494 101.523 -51.6702 -83.1524 28.5719 -28.1625 -7.08481 -12.6773 -12.3975 -37.114 -7.43185 -0.384167 0.790551 -88.0764 -56.2031 82.417 -15.399 6.69717 -14.4643 -0.892344 20.8385 -5.91172 -2.15165 -0.111474 -8.39838 23.3828 -0.734528 -6.72387 -24.7925 0.723395 4.85298 
140.608 97.1396 -151.543 -82.1532 -49.9781 -85.9112 -178.242 14.4784 84.1295 -28.6553 18.4122 1.40212 68.7524 8.22198 12.1182 53.2701 -0.493356 8.48791 175.468 28.6961 89.1017 -65.0121 -16.6272 -1.02999 51.046 7.55077 10.1259 34.3561 -0.180176 5.67791 -0.294059 8.80519 -89.1603 9.26425 -0.209478 1.68148 -2.40779 -0.13529 1.68906 -24.9354 -0.705102 1.54085 -4.9228 -0.705098 1.54084 101.773 -53.1522 -82.7561 31.1855 -24.503 -5.26542 -10.697 -14.8851 -32.2614 -12.0804 -0.67672 1.48347 -88.6136 -57.0757 81.8091 -8.84462 5.51883 -26.8243 -0.965286 10.4714 -10.0395 1.38447 -0.263094 -9.63903 27.6975 0.249739 -4.94299 -25.7232 1.33312 4.23651 
132.525 96.3541 -143.222 -74.0592 -52.6928 -79.0861 -176.662 8.30229 86.2188 -22.3044 23.5074 0.764801 70.2622 12.5532 16.0276 50.6302 -1.72908 3.15156 178.953 44.8679 87.4229 -56.2486 -8.25232 -1.29488 59.0047 4.8512 12.6443 47.3954 -2.86622 4.99404 -0.56495 9.06718 -89.3528 8.74196 -0.839768 1.33782 -2.92944 -0.780061 1.37347 -25.4632 -1.20299 1.02363 -5.45055 -1.20298 1.02362 100.63 -52.8875 -84.4813 35.0524 -22.7096 1.66383 -6.7784 -9.95422 -31.0022 -14.3611 -0.826749 1.54402 -90.1923 -59.0438 79.9897 -1.46077 -1.15806 -43.6959 1.32833 7.92866 -17.0565 -0.0929039 -0.286138 -13.9713 30.5217 0.717893 -4.23352 -26.5064 1.58799 4.21768 
123.466 92.6075 -134.079 -72.9394 -57.4006 -79.3531 -176.724 -0.331194 86.2175 -23.5087 30.0689 2.47757 70.6356 17.5857 21.5079 55.6811 -1.39088 5.87563 -179.757 54.9433 81.5418 -53.5481 -12.9258 -0.415345 61.8859 4.62711 13.4613 53.1766 -3.0411 7.58617 -0.761073 9.75749 -89.6 7.36339 -1.34678 0.853252 -4.30719 -1.30792 0.911703 -26.8472 -1.54094 0.408989 -6.83459 -1.54094 0.408968 98.8763 -50.3617 -87.2768 43.2771 -25.1991 19.1137 -5.42852 -0.0647914 -43.5707 -12.5054 -0.516549 -0.394626 -90.526 -53.4792 78.4297 -2.48362 -8.09875 -60.3611 5.30539 2.47633 -34.3314 4.02289 -0.52271 -12.0939 29.9021 1.60309 0.580053 -23.945 1.23246 0.37161 
110.71 88.6499 -120.739 -66.968 -58.7324 -70.0809 -179.073 0.361105 89.8386 -41.4323 24.8803 7.85977 63.998 7.07704 8.4852 62.4514 -0.296619 7.76972 163.13 54.0118 93.0691 -62.8542 -12.906 4.46342 57.6538 5.41018 9.98923 52.026 -3.99828 4.36349 -0.765105 9.59958 -90.7662 7.65411 -1.86067 -1.41859 -4.01625 -1.92131 -1.33533 -26.5506 -1.34836 -1.91214 -6.53798 -1.34838 -1.91214 96.7288 -48.9356 -90.7555 43.1507 -15.2188 29.2205 4.52826 10.1132 -47.2825 -10.4174 -0.0362311 -4.56267 -86.8019 -48.7442 83.0639 -1.49337 -9.77352 -50.6296 6.98666 -1.45407 -56.8478 10.5821 -1.05293 -12.9028 26.5458 4.01317 4.7479 -23.3787 2.0454 0.050782 
96.7991 85.9151 -105.773 -69.9975 -47.7968 -68.8663 174.647 22.3234 95.1165 -79.7273 14.1413 4.73244 39.18 -8.80079 1.95891 36.745 -1.39613 -2.83427 165.937 41.0473 99.8853 -68.4821 -20.452 5.42597 66.3934 -4.21707 -1.67441 64.4079 -2.96546 11.972 0.161679 9.90072 -91.2994 7.05587 -0.234677 -2.54168 -4.61769 -0.346253 -2.52891 -27.1319 0.539714 -2.49481 -7.11923 0.539725 -2.49481 98.7641 -51.4144 -87.4059 29.2652 -9.26774 6.94064 -4.8272 -3.15572 -49.3429 -18.8374 -0.148716 -4.62737 -86.3448 -53.8756 84.5377 -1.8041 3.09408 -14.5144 5.62051 0.123747 -46.1386 11.464 -0.833015 -10.4837 30.0672 4.79183 -2.63342 -23.7021 4.11594 9.35009 
82.2507 86.3343 -89.9707 -69.8443 -35.946 -69.7242 166.265 56.0933 99.7359 -95.1793 9.91692 3.87575 49.4381 -0.519413 11.383 46.796 -2.40559 -1.07568 175.881 24.7214 94.3585 -57.752 -18.5213 1.15243 76.902 -1.32308 12.3062 55.5299 -0.787981 13.7768 0.667146 9.60035 -90.7715 7.67583 0.996954 -1.58498 -3.99569 0.926246 -1.62732 -26.5292 1.42721 -1.21214 -6.51654 1.42722 -1.21213 101.407 -43.7305 -83.4166 26.7502 -18.1392 -21.1045 -38.4332 6.61639 -80.6741 -18.5671 -0.584099 -1.51642 -85.3594 -55.419 86.1678 -17.649 11.5787 17.681 3.08323 12.8446 -25.5462 7.40389 -0.475589 -8.7704 27.9464 4.65151 -9.03459 -23.284 5.57955 13.8612 
63.3383 90.1895 -71.879 -67.5552 -35.5498 -75.749 177.255 63.9286 88.4982 -63.5408 8.46701 1.80824 57.9244 2.89782 10.0362 54.1408 -1.97021 3.55427 177.344 -4.68228 86.4893 -18.0032 -14.8702 -2.48526 43.9106 13.5744 27.0792 32.0024 3.6815 23.8015 1.06757 9.11068 -89.5587 8.64529 2.3256 0.72289 -3.02371 2.35514 0.619781 -25.5704 2.00079 1.38861 -5.55773 2.00079 1.38861 103.292 -41.614 -80.1988 20.4596 -26.9543 -26.8197 -39.4069 19.9745 -97.8289 -12.2411 -0.363127 -1.79298 -88.9819 -48.9786 79.7945 -28.9225 12.0334 28.9197 3.99383 15.6463 -26.8198 5.73066 -0.62518 -11.9073 21.9293 0.264589 -8.34603 -20.988 1.74625 8.60309 
